<svg width="213" height="66" viewBox="0 0 213 66" fill="none" xmlns="http://www.w3.org/2000/svg">
<path d="M202.055 1.01941C203.189 2.51619 204.737 6.20994 205.538 8.04213C207.735 9.70243 210.503 10.8638 213 12.0294C205.131 17.245 206.758 12.9769 202.068 23.446C200.721 20.9765 199.953 18.1716 198.511 15.8447C196.055 14.4611 193.534 13.2536 191 12.0126C200.622 8.05052 197.522 9.24962 202.051 1.01941H202.055Z" fill="#FFDD64"/>
<path d="M209.518 0C209.878 0.476249 210.371 1.65153 210.626 2.2345C211.325 2.76278 212.206 3.1323 213 3.50316C210.496 5.1627 211.014 3.80466 209.522 7.13573C209.093 6.34999 208.849 5.45752 208.39 4.71713C207.609 4.2769 206.806 3.8927 206 3.49783C209.062 2.23717 208.075 2.6187 209.516 0L209.518 0Z" fill="white"/>
<path d="M10.3089 50.5042H5.58594L11.7205 32.3224H17.571L23.7056 50.5042H18.9826L14.7124 36.9033H14.5703L10.3089 50.5042ZM9.67862 43.3486H19.5508V46.6867H9.67862V43.3486ZM30.0577 32.3224V50.5042H25.6632V32.3224H30.0577Z" fill="white"/>
<path d="M48.0154 37.7734C47.9562 37.1223 47.6928 36.6163 47.2252 36.2552C46.7636 35.8883 46.1037 35.7048 45.2455 35.7048C44.6773 35.7048 44.2038 35.7788 43.825 35.9268C43.4462 36.0747 43.1621 36.2789 42.9727 36.5393C42.7834 36.7938 42.6857 37.0868 42.6798 37.4182C42.6679 37.6905 42.7212 37.9302 42.8396 38.1373C42.9639 38.3445 43.1414 38.528 43.3722 38.6878C43.609 38.8417 43.8931 38.9778 44.2245 39.0962C44.556 39.2145 44.9288 39.3181 45.3431 39.4069L46.9056 39.762C47.8053 39.9573 48.5983 40.2177 49.2849 40.5432C49.9774 40.8688 50.5574 41.2564 51.0249 41.7062C51.4984 42.1561 51.8565 42.6739 52.0992 43.2599C52.3418 43.8458 52.4661 44.5028 52.472 45.2307C52.4661 46.3789 52.1761 47.3644 51.602 48.1871C51.0279 49.0097 50.2023 49.6401 49.1251 50.078C48.0538 50.516 46.7606 50.735 45.2455 50.735C43.7244 50.735 42.3986 50.5071 41.2682 50.0514C40.1378 49.5957 39.2588 48.9032 38.6315 47.974C38.0041 47.0448 37.6816 45.8699 37.6638 44.4495H41.8719C41.9074 45.0354 42.0642 45.5237 42.3424 45.9143C42.6206 46.305 43.0023 46.6009 43.4877 46.8021C43.9789 47.0034 44.5471 47.104 45.1922 47.104C45.7841 47.104 46.2871 47.0241 46.7014 46.8643C47.1217 46.7045 47.4442 46.4825 47.6691 46.1984C47.894 45.9143 48.0094 45.5888 48.0154 45.2219C48.0094 44.8786 47.9029 44.5856 47.6958 44.343C47.4886 44.0944 47.169 43.8813 46.7369 43.7038C46.3108 43.5203 45.7663 43.3516 45.1034 43.1977L43.2036 42.7538C41.6292 42.3928 40.3893 41.8098 39.4838 41.0049C38.5782 40.194 38.1284 39.0991 38.1343 37.7201C38.1284 36.5956 38.4302 35.6101 39.0399 34.7638C39.6495 33.9174 40.4929 33.2575 41.57 32.784C42.6472 32.3105 43.8753 32.0738 45.2544 32.0738C46.663 32.0738 47.8852 32.3135 48.9209 32.7929C49.9626 33.2664 50.7704 33.9322 51.3445 34.7904C51.9186 35.6486 52.2116 36.6429 52.2235 37.7734H48.0154ZM54.0967 35.8913V32.3224H69.4642V35.8913H63.9511V50.5042H59.6187V35.8913H54.0967ZM82.6101 32.3224H86.9957V44.05C86.9957 45.4053 86.6732 46.5861 86.0281 47.5922C85.3829 48.5925 84.4833 49.3678 83.3292 49.9182C82.1751 50.4628 80.8345 50.735 79.3075 50.735C77.7628 50.735 76.4134 50.4628 75.2592 49.9182C74.1051 49.3678 73.2085 48.5925 72.5692 47.5922C71.93 46.5861 71.6104 45.4053 71.6104 44.05V32.3224H76.005V43.6682C76.005 44.2956 76.1411 44.8549 76.4134 45.3462C76.6915 45.8374 77.0792 46.2221 77.5763 46.5003C78.0735 46.7784 78.6506 46.9175 79.3075 46.9175C79.9645 46.9175 80.5386 46.7784 81.0298 46.5003C81.527 46.2221 81.9147 45.8374 82.1928 45.3462C82.471 44.8549 82.6101 44.2956 82.6101 43.6682V32.3224ZM96.4706 50.5042H89.7501V32.3224H96.4617C98.3142 32.3224 99.9093 32.6864 101.247 33.4143C102.59 34.1364 103.626 35.1781 104.354 36.5393C105.082 37.8947 105.446 39.5164 105.446 41.4044C105.446 43.2983 105.082 44.9259 104.354 46.2872C103.632 47.6485 102.599 48.6931 101.256 49.4211C99.9123 50.1431 98.3172 50.5042 96.4706 50.5042ZM94.1446 46.7577H96.3019C97.3199 46.7577 98.1811 46.5861 98.8854 46.2428C99.5956 45.8936 100.131 45.3284 100.492 44.5471C100.859 43.76 101.043 42.7124 101.043 41.4044C101.043 40.0964 100.859 39.0547 100.492 38.2794C100.125 37.4981 99.5838 36.9359 98.8676 36.5926C98.1574 36.2434 97.2815 36.0688 96.2398 36.0688H94.1446V46.7577ZM105.91 32.3224H110.819L114.664 39.9307H114.823L118.667 32.3224H123.577L116.927 44.4317V50.5042H112.559V44.4317L105.91 32.3224ZM130.79 50.5042V32.3224H135.185V39.6199H142.349V32.3224H146.735V50.5042H142.349V43.1977H135.185V50.5042H130.79ZM160.491 32.3224H164.877V44.05C164.877 45.4053 164.554 46.5861 163.909 47.5922C163.264 48.5925 162.364 49.3678 161.21 49.9182C160.056 50.4628 158.715 50.735 157.188 50.735C155.644 50.735 154.294 50.4628 153.14 49.9182C151.986 49.3678 151.089 48.5925 150.45 47.5922C149.811 46.5861 149.491 45.4053 149.491 44.05V32.3224H153.886V43.6682C153.886 44.2956 154.022 44.8549 154.294 45.3462C154.572 45.8374 154.96 46.2221 155.457 46.5003C155.954 46.7784 156.531 46.9175 157.188 46.9175C157.845 46.9175 158.419 46.7784 158.911 46.5003C159.408 46.2221 159.796 45.8374 160.074 45.3462C160.352 44.8549 160.491 44.2956 160.491 43.6682V32.3224ZM167.631 50.5042V32.3224H175.213C176.574 32.3224 177.713 32.5147 178.631 32.8994C179.554 33.2841 180.246 33.8227 180.708 34.5152C181.176 35.2077 181.409 36.0096 181.409 36.9211C181.409 37.6136 181.264 38.232 180.974 38.7766C180.684 39.3151 180.285 39.762 179.776 40.1171C179.267 40.4722 178.678 40.7208 178.009 40.8628V41.0404C178.743 41.0759 179.421 41.2742 180.042 41.6352C180.67 41.9962 181.173 42.4993 181.551 43.1445C181.93 43.7837 182.12 44.5412 182.12 45.4172C182.12 46.3937 181.871 47.2667 181.374 48.0361C180.877 48.7996 180.158 49.4033 179.217 49.8472C178.275 50.2852 177.133 50.5042 175.79 50.5042H167.631ZM172.025 46.9619H174.742C175.695 46.9619 176.396 46.7814 176.846 46.4204C177.302 46.0593 177.53 45.5563 177.53 44.9111C177.53 44.4436 177.42 44.0411 177.201 43.7038C176.982 43.3605 176.672 43.0971 176.269 42.9136C175.867 42.7242 175.384 42.6295 174.822 42.6295H172.025V46.9619ZM172.025 39.7975H174.458C174.937 39.7975 175.364 39.7176 175.736 39.5578C176.109 39.398 176.399 39.1672 176.606 38.8653C176.82 38.5635 176.926 38.1995 176.926 37.7734C176.926 37.1637 176.71 36.6843 176.278 36.3351C175.846 35.986 175.263 35.8114 174.529 35.8114H172.025V39.7975Z" fill="#FFDD64"/>
<path d="M176.596 17.1983C189.578 17.5275 200 28.1545 200 41.2159L199.992 41.836C199.668 54.6119 189.372 64.9095 176.596 65.2334L175.976 65.2412H0V61.2412H175.976C187.035 61.241 196 52.2753 196 41.2159C196 30.1564 187.035 21.1908 175.976 21.1905H0V17.1905H175.976L176.596 17.1983Z" fill="#FFDD64"/>
</svg>
